<svg width="12" height="12" viewBox="0 0 12 12" xmlns="http://www.w3.org/2000/svg">
    <path d="M8.114 1.333a2 2 0 1 1 0 1.334H.667a.667.667 0 0 1 0-1.334h7.447zm1.886 0a.667.667 0 1 0 0 1.334.667.667 0 0 0 0-1.334zM0 6a2 2 0 0 1 3.886-.667h7.447a.667.667 0 1 1 0 1.334H3.886A2 2 0 0 1 0 6zm2-.667a.667.667 0 1 0 0 1.334.667.667 0 0 0 0-1.334zm2.114 4a2 2 0 0 1 3.772 0h3.447a.667.667 0 1 1 0 1.334H7.886a2 2 0 0 1-3.772 0H.667a.667.667 0 1 1 0-1.334h3.447zm1.886 0a.667.667 0 1 0 0 1.334.667.667 0 0 0 0-1.334z" fill="#7C7C7C" fill-rule="evenodd"/>
</svg>
