<svg version="1.2" xmlns="http://www.w3.org/2000/svg" viewBox="0 0 122 37" width="122" height="37"><style>.a{fill:#212b36}.b{fill:#fc6e45}</style><path fill-rule="evenodd" class="a" d="m44.7 18.4q0-1.4 0.5-2.6 0.1-0.3 0.2-0.5 0.2-0.3 0.4-0.6 0.1-0.2 0.3-0.5 0.2-0.2 0.5-0.4 0.2-0.2 0.4-0.4 0.3-0.2 0.5-0.4 0.3-0.2 0.5-0.3 0.3-0.2 0.6-0.3 0.3-0.1 0.6-0.2 0.3-0.1 0.6-0.1 0.4-0.1 0.7-0.1 0.3-0.1 0.6-0.1 1.4 0 2.6 0.5 1.1 0.6 2 1.4 0.2 0.2 0.4 0.5 0.2 0.2 0.4 0.5 0.1 0.2 0.3 0.5 0.1 0.3 0.3 0.5 0.5 1.2 0.5 2.6 0 1.3-0.5 2.5-0.2 0.3-0.3 0.6-0.2 0.2-0.3 0.5-0.2 0.2-0.4 0.5-0.2 0.2-0.4 0.4-0.2 0.3-0.5 0.5-0.2 0.1-0.5 0.3-0.2 0.2-0.5 0.3-0.3 0.2-0.5 0.3-0.3 0.1-0.7 0.2-0.3 0.1-0.6 0.2-0.3 0.1-0.6 0.1-0.3 0-0.7 0-1 0-2-0.4-1.1-0.4-1.7-1v4.2q0 0.6-0.4 1-0.1 0.1-0.2 0.2-0.1 0-0.2 0.1-0.1 0-0.3 0.1-0.1 0-0.2 0-0.6 0-1-0.4-0.1-0.1-0.2-0.2-0.1-0.1-0.1-0.3-0.1-0.1-0.1-0.2 0-0.1 0-0.3zm2.7 0q0 0.8 0.3 1.5 0.3 0.6 0.8 1.1 0.5 0.5 1.2 0.8 0.7 0.3 1.4 0.3 0.8 0 1.5-0.3 0.6-0.3 1.1-0.8 0.5-0.5 0.8-1.1 0.3-0.7 0.3-1.5 0-0.7-0.3-1.4 0-0.2-0.1-0.3-0.1-0.2-0.2-0.3-0.1-0.2-0.2-0.3-0.1-0.2-0.3-0.3-0.1-0.1-0.2-0.2-0.2-0.1-0.3-0.2-0.2-0.1-0.3-0.2-0.2-0.1-0.3-0.2-0.2-0.1-0.4-0.1-0.2-0.1-0.3-0.1-0.2 0-0.4-0.1-0.2 0-0.4 0-0.2 0-0.3 0-0.2 0.1-0.4 0.1-0.2 0-0.4 0.1-0.1 0-0.3 0.1-0.7 0.3-1.2 0.8-0.1 0.1-0.2 0.3-0.1 0.1-0.2 0.3-0.1 0.1-0.2 0.3-0.1 0.1-0.2 0.3-0.3 0.7-0.3 1.4zm16.4-5.9q0.6 0 1 0.4 0.4 0.4 0.4 1v0.2q0.3-0.5 0.8-0.9 0.6-0.4 1.2-0.6 0.6-0.3 1.2-0.5 0.1 0 0.3-0.1 0.1 0 0.3 0 0.1 0 0.2 0 0.2-0.1 0.3-0.1 0.6 0 1.1 0.5 0.4 0.4 0.4 1 0 0.6-0.4 1-0.1 0.1-0.3 0.2-0.1 0.1-0.2 0.2-0.2 0-0.3 0-0.1 0.1-0.3 0.1-0.8 0-1.6 0.3-0.2 0.1-0.4 0.2-0.1 0-0.3 0.2-0.2 0.1-0.4 0.2-0.1 0.1-0.3 0.3-0.6 0.5-1 1.2 0 0.2-0.1 0.4-0.1 0.2-0.1 0.4-0.1 0.2-0.1 0.4 0 0.2 0 0.4v4.1q0 0.5-0.4 0.9-0.1 0.1-0.2 0.2-0.1 0.1-0.3 0.1-0.1 0.1-0.2 0.1-0.2 0-0.3 0-0.6 0-1-0.4-0.1-0.1-0.1-0.2-0.1-0.1-0.2-0.2 0-0.1 0-0.3-0.1-0.1-0.1-0.2v-9.1q0-0.6 0.4-1 0.4-0.4 1-0.4zm10.6 5.9q0-0.6 0.1-1.3 0.2-0.6 0.4-1.2 0.3-0.6 0.6-1.1 0.4-0.5 0.8-1 0.2-0.2 0.5-0.4 0.2-0.2 0.5-0.3 0.2-0.2 0.5-0.4 0.3-0.1 0.6-0.2 0.3-0.2 0.6-0.3 0.3-0.1 0.6-0.1 0.3-0.1 0.6-0.1 0.4-0.1 0.7 0 1.3 0 2.5 0.5 0.3 0.1 0.6 0.2 0.2 0.2 0.5 0.3 0.3 0.2 0.5 0.4 0.2 0.2 0.5 0.4 0.2 0.3 0.4 0.5 0.2 0.2 0.3 0.5 0.2 0.2 0.4 0.5 0.1 0.3 0.2 0.6 0.5 1.1 0.5 2.5 0 0.3 0 0.6 0 0.4-0.1 0.7 0 0.3-0.1 0.6-0.1 0.3-0.3 0.6-0.1 0.3-0.2 0.6-0.2 0.2-0.4 0.5-0.1 0.3-0.3 0.5-0.2 0.2-0.4 0.5-0.3 0.2-0.5 0.4-0.2 0.2-0.5 0.3-0.3 0.2-0.5 0.4-0.3 0.1-0.6 0.2-0.3 0.2-0.6 0.3-0.3 0.1-0.6 0.1-0.3 0.1-0.7 0.1-0.3 0-0.6 0-1.4 0-2.5-0.5-0.3-0.1-0.6-0.2-0.3-0.2-0.5-0.4-0.3-0.1-0.5-0.3-0.3-0.2-0.5-0.4-0.2-0.3-0.4-0.5-0.2-0.2-0.4-0.5-0.1-0.3-0.3-0.5-0.1-0.3-0.3-0.6-0.1-0.3-0.2-0.6-0.1-0.3-0.2-0.6 0-0.3 0-0.7-0.1-0.3-0.1-0.6zm2.8 0q0 0.8 0.3 1.4 0.3 0.7 0.8 1.2 0.1 0.1 0.2 0.2 0.2 0.2 0.3 0.3 0.2 0.1 0.3 0.1 0.2 0.1 0.3 0.2 0.7 0.3 1.5 0.3 0.7 0 1.4-0.3 0.2-0.1 0.3-0.2 0.2 0 0.3-0.1 0.2-0.1 0.3-0.3 0.2-0.1 0.3-0.2 0.5-0.5 0.8-1.2 0.3-0.6 0.3-1.4 0-0.8-0.3-1.4-0.3-0.7-0.8-1.2-0.1-0.1-0.3-0.3-0.1-0.1-0.2-0.2-0.2-0.1-0.4-0.2-0.1 0-0.3-0.1-0.1-0.1-0.3-0.1-0.2-0.1-0.4-0.1-0.2-0.1-0.3-0.1-0.2 0-0.4 0-0.8 0-1.5 0.3-0.1 0.1-0.3 0.1-0.1 0.1-0.3 0.2-0.1 0.1-0.3 0.2-0.1 0.2-0.2 0.3-0.2 0.1-0.3 0.2-0.1 0.2-0.2 0.3-0.1 0.2-0.2 0.3-0.1 0.2-0.1 0.4-0.3 0.6-0.3 1.4zm16.3-9.3q0-0.5 0.4-0.9 0.4-0.4 0.9-0.4 0.6 0 1 0.4 0.4 0.4 0.4 0.9v3.4h1.4q0.6 0 1 0.4 0.4 0.4 0.4 1 0 0.5-0.4 0.9-0.1 0.1-0.2 0.2-0.1 0.1-0.3 0.1-0.1 0.1-0.2 0.1-0.2 0-0.3 0h-1.4v7.7q0 0.6-0.4 1-0.4 0.4-0.9 0.4-0.6 0-1-0.4-0.1-0.1-0.2-0.2-0.1-0.1-0.1-0.2-0.1-0.1-0.1-0.3 0-0.1 0-0.3v-7.7q-0.6 0-1-0.4-0.1-0.1-0.2-0.2-0.1-0.1-0.1-0.2-0.1-0.1-0.1-0.3 0-0.1 0-0.2 0-0.6 0.4-1 0.4-0.4 1-0.4v-3.4q0 0 0 0zm10-0.6q0-0.8 0.5-1.3 0.1-0.1 0.3-0.2 0.1-0.1 0.3-0.1 0.1-0.1 0.3-0.1 0.2-0.1 0.3-0.1 0.8 0 1.3 0.5 0.5 0.5 0.5 1.3 0 0.7-0.5 1.2-0.5 0.5-1.3 0.5-0.7 0-1.2-0.5-0.1-0.1-0.2-0.3-0.1-0.1-0.1-0.3-0.1-0.1-0.1-0.3-0.1-0.1-0.1-0.3zm0.3 5.4q0-0.6 0.4-1 0.4-0.4 1-0.4 0.6 0 1 0.4 0.4 0.4 0.4 1v9q0 0.6-0.4 1-0.1 0.1-0.2 0.2-0.1 0.1-0.2 0.1-0.1 0.1-0.3 0.1-0.1 0-0.3 0-0.6 0-1-0.4-0.1-0.1-0.1-0.2-0.1-0.1-0.2-0.2 0-0.1 0-0.3-0.1-0.1-0.1-0.3zm15.5-0.5q0.4-0.9 1.3-0.9 0.6 0 1 0.5 0.1 0.1 0.2 0.2 0 0.1 0.1 0.2 0 0.1 0.1 0.3 0 0.1 0 0.2 0 0.3-0.1 0.6l-3.8 8.6q-0.1 0.2-0.2 0.4-0.1 0.3-0.3 0.5 0 0-0.1 0.1 0 0-0.1 0.1-0.1 0-0.1 0.1-0.1 0-0.2 0-0.3 0.1-0.8 0.1-0.5 0-0.8-0.1-0.1 0-0.1 0-0.1-0.1-0.2-0.1 0-0.1-0.1-0.1 0-0.1-0.1-0.1 0-0.1-0.1-0.1 0-0.1 0-0.1-0.1-0.1-0.1-0.2 0 0-0.1-0.1-0.1-0.2-0.2-0.4l-3.7-8.6q0 0 0-0.1-0.1 0-0.1-0.1 0 0 0 0 0-0.1 0-0.1 0-0.1 0-0.1 0 0 0-0.1 0 0 0 0 0-0.1 0-0.1 0-0.5 0.4-0.9 0.1-0.1 0.2-0.2 0.1-0.1 0.2-0.2 0.1 0 0.3 0 0.1-0.1 0.2 0 0.6 0 0.9 0.2 0.3 0.2 0.4 0.7l3 6.8z"/><path class="b" d="m18.6 30.5c0.8 0 1.5 0.3 2.1 0.8 0.5 0.6 0.8 1.3 0.8 2.1 0 0.7-0.3 1.4-0.8 2-0.6 0.5-1.3 0.8-2.1 0.8-0.7 0-1.4-0.3-2-0.8-0.5-0.6-0.8-1.3-0.8-2 0-0.8 0.3-1.5 0.8-2.1 0.6-0.5 1.3-0.8 2-0.8zm4.4-5l3.1 1.8q0.3 0.2 0.5 0.5 0.2 0.3 0.3 0.6 0.1 0.4 0 0.7 0 0.4-0.2 0.7-0.2 0.3-0.5 0.5-0.2 0.2-0.6 0.3-0.3 0.1-0.7 0-0.4 0-0.7-0.2l-3-1.9q-0.6-0.3-1.2-0.4-0.7-0.2-1.3-0.1-0.6 0.1-1.2 0.3-0.6 0.3-1.1 0.7l-5.8 5.4c-0.3 0.3-0.8 0.5-1.2 0.5q-0.6 0-1-0.3-0.5-0.3-0.7-0.9-0.2-0.5-0.1-1 0.2-0.6 0.6-0.9l5.8-5.4c2.4-2.3 6.1-2.7 9-0.9zm-18.8-16.5l5.4 5.8c2.2 2.5 2.6 6.2 0.9 9.1l-1.9 3q-0.1 0.4-0.4 0.6-0.3 0.2-0.7 0.3-0.3 0.1-0.7 0-0.3-0.1-0.6-0.2-0.3-0.2-0.6-0.5-0.2-0.3-0.3-0.6 0-0.4 0-0.7 0.1-0.4 0.2-0.7l1.9-3.1c0.9-1.5 0.7-3.4-0.5-4.7l-5.4-5.8q-0.2-0.3-0.3-0.6-0.2-0.4-0.1-0.7 0-0.4 0.1-0.7 0.2-0.3 0.4-0.6 0.3-0.2 0.6-0.3 0.4-0.2 0.7-0.2 0.4 0.1 0.7 0.2 0.3 0.2 0.6 0.4zm24.2-0.8q0.3 0.1 0.5 0.4 0.2 0.3 0.3 0.7 0.1 0.3 0 0.7 0 0.3-0.2 0.6l-1.8 3.1c-0.9 1.5-0.7 3.5 0.5 4.8l5.3 5.8q0.4 0.4 0.5 0.9 0.1 0.5-0.1 1-0.3 0.5-0.7 0.8-0.5 0.3-1 0.3c-0.5 0-1-0.2-1.3-0.6l-5.4-5.8c-2.3-2.5-2.6-6.2-0.9-9l1.8-3.1q0.2-0.3 0.5-0.5 0.3-0.3 0.6-0.3 0.4-0.1 0.7-0.1 0.4 0.1 0.7 0.3zm-25.5 8.5c0.7 0 1.4 0.3 2 0.9 0.5 0.5 0.8 1.2 0.8 2 0 0.7-0.3 1.5-0.8 2-0.6 0.5-1.3 0.8-2 0.8-0.8 0-1.5-0.3-2.1-0.8-0.5-0.5-0.8-1.3-0.8-2 0-0.8 0.3-1.5 0.8-2 0.6-0.6 1.3-0.9 2.1-0.9zm14.4-1.8c0.8 0 1.7 0.3 2.3 0.9 0.6 0.6 0.9 1.4 0.9 2.3 0 0.9-0.3 1.7-0.9 2.3-0.6 0.6-1.5 0.9-2.3 0.9-0.9 0-1.7-0.3-2.3-0.9-0.6-0.6-1-1.4-1-2.3 0-0.9 0.4-1.7 1-2.3 0.6-0.6 1.4-0.9 2.3-0.9zm14.4-2.1c0.8 0 1.5 0.3 2 0.9 0.6 0.5 0.9 1.2 0.9 2 0 0.7-0.3 1.5-0.9 2-0.5 0.5-1.2 0.8-2 0.8-0.8 0-1.5-0.3-2-0.8-0.6-0.5-0.9-1.3-0.9-2 0-0.8 0.3-1.5 0.9-2 0.5-0.6 1.2-0.9 2-0.9zm-5.2-10.9q0.2 0.3 0.4 0.6 0.1 0.3 0.1 0.7 0 0.4-0.2 0.7-0.1 0.3-0.4 0.6l-5.8 5.3q-0.5 0.5-1.1 0.9-0.6 0.4-1.3 0.6-0.7 0.3-1.4 0.4-0.7 0.1-1.4 0.1-0.5 0-1 0-0.5-0.1-1-0.2-0.5-0.2-0.9-0.4-0.5-0.2-1-0.4l-3-1.9q-0.3-0.2-0.6-0.5-0.2-0.3-0.3-0.6 0-0.3 0-0.7 0.1-0.4 0.2-0.7 0.2-0.3 0.5-0.5 0.3-0.2 0.7-0.3 0.3-0.1 0.7 0 0.3 0 0.6 0.2l3.1 1.9c1.5 0.9 3.4 0.7 4.7-0.5l5.8-5.4q0.3-0.2 0.6-0.4 0.4-0.1 0.7-0.1 0.4 0 0.7 0.2 0.3 0.1 0.6 0.4zm-10.7-1.9c0.7 0 1.5 0.3 2 0.8 0.5 0.6 0.8 1.3 0.8 2.1 0 0.7-0.3 1.4-0.8 2-0.5 0.5-1.3 0.8-2 0.8-0.8 0-1.5-0.3-2-0.8-0.6-0.6-0.9-1.3-0.9-2 0-0.8 0.3-1.5 0.9-2.1 0.5-0.5 1.2-0.8 2-0.8z"/></svg>