<svg version="1.2" xmlns="http://www.w3.org/2000/svg" viewBox="0 0 358 422" width="358" height="422">
	<title>bill-icon-svg</title>
	<style>
		.s0 { fill: #fc6e45 } 
	</style>
	<path id="Layer" fill-rule="evenodd" class="s0" d="m124.1 243.7q-2.4-2.4-4.3-5.1-1.8-2.8-3.1-5.9-1.2-3.2-1.7-6.5c-0.3-0.9-0.3-1.9-0.1-2.8 0.2-0.9 0.6-1.8 1.3-2.5 0.6-0.7 1.4-1.3 2.3-1.6 0.9-0.3 1.9-0.4 2.8-0.3 4.5 0.2 6.5 3.1 6.8 5.8q0.5 1.8 1.3 3.5 0.8 1.7 1.8 3.2 1.1 1.6 2.4 2.9 1.3 1.3 2.9 2.4c3.8 2.9 9.2 4.7 16 5.4v-38.6c-8.8-1-16.6-4-22.6-9q-2.3-2-4.2-4.4-1.9-2.5-3.3-5.2-1.4-2.8-2.3-5.8-0.9-2.9-1.2-6-0.1-1.8-0.1-3.5 0-1.8 0.3-3.5 0.2-1.7 0.6-3.4 0.5-1.7 1.1-3.4 0.7-1.5 1.5-3.1 0.8-1.5 1.7-2.9 1-1.4 2.1-2.7 1.1-1.3 2.3-2.4 1.3-1.3 2.8-2.4 1.4-1.1 3-2 1.5-1 3.1-1.8 1.7-0.8 3.4-1.4 1.4-0.5 2.9-0.9 1.4-0.5 2.9-0.8 1.5-0.3 3-0.6 1.5-0.2 3.1-0.4v-5.3c-0.1-2 0.7-4 2.1-5.5 1.4-1.4 3.4-2.3 5.4-2.3 2 0 4 0.9 5.4 2.3 1.4 1.5 2.2 3.5 2.1 5.5v6.1q2.5 0.5 4.9 1.3 2.4 0.8 4.6 2 2.2 1.1 4.3 2.6 2 1.5 3.8 3.2c5.7 5.6 8.6 13.1 8.9 22.3-0.9 4.5-3.2 6.8-6.4 7.2-3.1 0.4-6.4-1.4-6.9-5.9q-0.1-0.9-0.2-1.7-0.1-0.9-0.3-1.7-0.2-0.9-0.4-1.7-0.2-0.8-0.5-1.7-0.3-0.8-0.6-1.5-0.3-0.8-0.7-1.5-0.4-0.7-0.9-1.4-0.5-0.7-1-1.4-0.6-0.7-1.3-1.4-0.7-0.7-1.4-1.3-0.7-0.7-1.4-1.3-0.8-0.6-1.6-1.1-0.3-0.2-0.7-0.4-0.3-0.2-0.7-0.4-0.3-0.2-0.7-0.4-0.4-0.2-0.8-0.3v40.3q1.8 0.3 3.5 0.8 1.7 0.5 3.3 1.2 1.7 0.6 3.3 1.4 1.6 0.8 3.1 1.7 1.4 0.9 2.7 1.9 1.3 1 2.5 2.1 1.2 1.1 2.3 2.4 1.1 1.2 2 2.6 0.8 1.2 1.5 2.5 0.7 1.3 1.2 2.7 0.6 1.4 1 2.8 0.4 1.4 0.6 2.9 0.3 1.3 0.5 2.6 0.1 1.3 0.2 2.7 0.1 1.3 0 2.6 0 1.3-0.1 2.6c-0.4 6.4-3.2 12.4-8.1 17.8-4.4 4.8-10.9 7.9-19.5 9.1v4.9q0 0.8-0.1 1.7-0.2 0.8-0.5 1.5-0.4 0.8-0.9 1.5-0.6 0.6-1.2 1.1-0.6 0.4-1.1 0.8-0.6 0.3-1.3 0.5-0.6 0.2-1.2 0.3-0.7 0.1-1.4 0.1-0.6 0-1.3-0.1-0.6-0.1-1.3-0.3-0.6-0.3-1.2-0.6-0.5-0.3-1-0.8-0.7-0.5-1.1-1.2-0.5-0.6-0.8-1.4-0.3-0.7-0.5-1.5-0.1-0.8-0.1-1.6v-4.7q-3.1-0.3-6.1-0.8-3-0.6-6-1.5-2.9-1-5.7-2.3-2.8-1.2-5.5-2.8-2.8-1.8-5.2-4.1zm13.3-60.8q0.8 0.7 1.6 1.4 0.9 0.7 1.8 1.3 0.9 0.7 1.9 1.2 0.9 0.6 1.9 1 1 0.5 1.9 0.9 1 0.3 2 0.7 1 0.3 2 0.5 1 0.3 2 0.5v-39.5c-6.1 0.9-10.8 3.1-14.1 6.6q-1.5 1.4-2.6 3.2-1.1 1.7-1.9 3.6-0.7 2-1 4-0.3 2.1-0.1 4.1 0 0.7 0.1 1.5 0.2 0.7 0.3 1.4 0.2 0.7 0.4 1.4 0.2 0.7 0.4 1.4 0.3 0.7 0.6 1.3 0.4 0.7 0.8 1.3 0.4 0.6 0.9 1.1 0.5 0.6 1 1.1zm41.5 53q0.4-0.5 0.7-1.1 0.4-0.5 0.7-1.1 0.3-0.5 0.6-1.1 0.2-0.6 0.4-1.2 0.2-0.4 0.3-0.9 0.2-0.4 0.3-0.9 0.1-0.4 0.1-0.9 0.1-0.5 0.1-0.9v-0.1c0.2-7.1-1.2-12.2-4.2-15.6q-3.4-4-10.2-6v35.9q0.7-0.2 1.4-0.3 0.8-0.2 1.5-0.4 0.7-0.3 1.4-0.6 0.7-0.2 1.4-0.6 0.8-0.4 1.5-0.8 0.7-0.5 1.4-1 0.7-0.6 1.4-1.2 0.6-0.6 1.2-1.2z"/>
	<path id="Layer" class="s0" d="m253.6 101.3h42.1l-42.1-42.1v42.1z"/>
	<path id="Layer" fill-rule="evenodd" class="s0" d="m235.2 114.6c0.5 1.1 1.2 2.2 2.1 3.1 0.8 0.8 1.9 1.6 3.1 2 1.1 0.5 2.3 0.8 3.6 0.8h65.3v300.8h-308.4v-375.6h233.6v65.2c0 1.3 0.2 2.5 0.7 3.7zm-80.1 2.3c-10.4 0-20.8 2-30.4 6-9.7 4-18.4 9.9-25.8 17.2-7.4 7.4-13.2 16.2-17.2 25.8-4 9.7-6 20-6 30.4 0 32.2 19.3 61.1 49 73.4 29.7 12.3 63.8 5.5 86.6-17.2 22.7-22.7 29.5-56.9 17.2-86.6-12.3-29.6-41.3-49-73.4-49zm106.6 253.8c1.7-1.8 2.7-4.2 2.7-6.7 0-2.5-1-4.8-2.7-6.6-1.8-1.8-4.1-2.9-6.6-2.9h-200.1c-2.5 0-4.8 1.1-6.6 2.9-1.7 1.8-2.7 4.1-2.7 6.6 0 2.5 1 4.9 2.7 6.7 1.8 1.8 4.1 2.8 6.6 2.9h200.1c2.5-0.1 4.8-1.1 6.6-2.9zm3-49c0-1.3-0.3-2.5-0.8-3.7-0.4-1.1-1.1-2.2-2-3-0.9-0.9-2-1.6-3.1-2.1-1.2-0.5-2.4-0.7-3.7-0.7h-200.1c-2.5 0-5 1-6.8 2.8-1.8 1.8-2.8 4.2-2.8 6.7 0 2.6 1 5 2.8 6.8 1.8 1.8 4.3 2.8 6.8 2.8h200.1c1.2 0 2.5-0.2 3.6-0.7 1.2-0.5 2.3-1.2 3.1-2.1 0.9-0.9 1.6-1.9 2.1-3.1 0.5-1.2 0.7-2.4 0.7-3.7z"/>
	<path id="Layer" class="s0" d="m48.7 0.7v25.9h195.3q0.2 0 0.3 0 0.2 0 0.3 0.1 0.2 0 0.3 0 0.2 0.1 0.3 0.1 0.2 0 0.3 0.1 0.2 0 0.3 0 0.2 0 0.4 0.1 0.1 0 0.3 0.1 0.6 0.1 1.1 0.3 0.6 0.2 1.2 0.5 0.5 0.3 1 0.7 0.5 0.3 1 0.8l74.7 74.7q0.5 0.5 0.8 1 0.4 0.5 0.7 1 0.3 0.6 0.5 1.2 0.2 0.5 0.3 1.1 0.1 0.2 0.1 0.4 0.1 0.1 0.1 0.3 0 0.1 0.1 0.3 0 0.2 0 0.3 0 0.2 0.1 0.3 0 0.2 0 0.3 0.1 0.2 0.1 0.3 0 0.2 0 0.3v265.1h28.7v-375.3z"/>
</svg>