<svg width="70" height="72" viewBox="0 0 70 72" xmlns="http://www.w3.org/2000/svg">
    <path d="M70 42.002V69c0 1.65-1.34 3-2.98 3H37.236c-1.639 0-2.98-1.35-2.98-3V42.002H70zm-7.44 19.5h-2.98v3h2.98v-3zm-8.937-.001h-2.979v3h2.98v-3zm-8.936 0H41.71v3h2.978v-3zM32.831 0v10.435c0 2.481 2.004 4.5 4.468 4.5h10.36V18H37.234c-3.285 0-5.958 2.692-5.958 6v39H4.468C2.011 63 0 60.975 0 58.5v-54C0 2.025 2.01 0 4.468 0h28.363zM62.56 54.001h-2.978v3h2.978v-3zm-8.936 0h-2.979v3h2.98v-3zm-8.936 0H41.71v3h2.978v-3zm-22.34-3H7.454v3h14.893v-3zm5.957 0h-2.83v3h2.83v-3zm34.255-4.5h-2.978v3h2.978v-3zm-8.936 0h-2.979v3h2.98v-3zm-8.936-.001H41.71v3h2.978v-3zM22.347 43.5H7.454v3h14.893v-3zm5.957 0h-2.83v3h2.83v-3zm-5.957-7.5H7.454v3h14.893v-3zm5.957 0h-2.83v3h2.83v-3zm38.717-15C68.66 21 70 22.35 70 24v15H34.256v-15c0-1.65 1.34-3 2.979-3zm-3.723 6h-22.34a2.249 2.249 0 0 0-2.234 2.25v4.5A2.248 2.248 0 0 0 40.958 36h22.34a2.239 2.239 0 0 0 2.234-2.25v-4.5c0-1.246-.998-2.25-2.234-2.25zM17.873 7.5C12.124 7.5 7.448 12.21 7.448 18s4.676 10.5 10.425 10.5c5.749 0 10.425-4.71 10.425-10.5S23.622 7.5 17.873 7.5zm.59 4.701v.714c1.018.075 1.981.425 2.89 1.05l-.904 1.287a4.467 4.467 0 0 0-1.986-.812v2.631h.041c1.065.252 1.847.593 2.347 1.02.5.43.75 1.053.75 1.869 0 .816-.287 1.481-.861 1.994-.574.513-1.334.793-2.278.84l.001 1.006h-.89v-1.022c-1.269-.13-2.408-.638-3.417-1.524l1.014-1.217c.778.68 1.579 1.086 2.403 1.217v-2.715c-1.047-.251-1.813-.582-2.299-.993-.486-.41-.73-1.019-.73-1.826 0-.806.28-1.466.84-1.98.561-.512 1.29-.792 2.19-.839v-.7h.888zm-.001 6.577v2.518c.445-.046.797-.176 1.056-.391.259-.214.389-.484.388-.811 0-.326-.102-.585-.305-.777-.203-.191-.583-.37-1.14-.539zm-.89-4.38c-.416.038-.743.162-.98.372-.235.21-.353.47-.353.783 0 .312.092.56.278.741.185.182.537.357 1.056.525zM35.81.877l10.98 11.06H37.3c-.822 0-1.49-.674-1.49-1.5V.876z" fill="#FFF" fill-rule="nonzero" opacity=".5"/>
</svg>
