<svg version="1.2" xmlns="http://www.w3.org/2000/svg" viewBox="0 0 51 66" width="51" height="66"><defs><linearGradient id="P" gradientUnits="userSpaceOnUse"/><linearGradient id="g1" x1="2.4" y1="53.2" x2="2008.5" y2="53.2" href="#P"><stop stop-color="#cadcf0"/><stop offset="1" stop-color="#a4bbdb"/></linearGradient><linearGradient id="g2" x1="2.4" y1="31" x2="2008.6" y2="31" href="#P"><stop stop-color="#a4bbdb"/><stop offset="1" stop-color="#8da3be"/></linearGradient><linearGradient id="g3" x1="-471.3" y1="67.9" x2="521.3" y2="67.9" href="#P"><stop stop-color="#cadcf0"/><stop offset="1" stop-color="#a4bbdb"/></linearGradient><linearGradient id="g4" x1="0" y1="666" x2="2500.1" y2="666" href="#P"><stop stop-color="#e9f3fc"/><stop offset="1" stop-color="#cadcf0"/></linearGradient><filter x="-50%" y="-50%" width="200%" height="200%" id="f1" ><feDropShadow dx="0" dy="0" stdDeviation="20" flood-color="#2865a7" flood-opacity=".5"/></filter><filter x="-50%" y="-50%" width="200%" height="200%" id="f2" ><feDropShadow dx="0" dy="0" stdDeviation="20" flood-color="#2865a7" flood-opacity=".5"/></filter><linearGradient id="g5" x1="9" y1="77" x2="345.6" y2="77" href="#P"><stop stop-color="#2865a7"/><stop offset="1" stop-color="#9dcf47"/></linearGradient><linearGradient id="g6" x1="29" y1="-36.9" x2="33.2" y2="37" href="#P"><stop stop-color="#559aff"/><stop offset="1" stop-color="#2e69ef"/></linearGradient><linearGradient id="g7" x1="49.6" y1="-21.2" x2="61.2" y2="45.8" href="#P"><stop stop-color="#559aff"/><stop offset="1" stop-color="#2e69ef"/></linearGradient><linearGradient id="g8" x1="43.7" y1="7" x2="57.8" y2="30.3" href="#P"><stop stop-color="#559aff"/><stop offset="1" stop-color="#2e69ef"/></linearGradient><linearGradient id="g9" x1="27.1" y1="11.2" x2="42.3" y2="26.2" href="#P"><stop stop-color="#559aff"/><stop offset="1" stop-color="#2e69ef"/></linearGradient><linearGradient id="g10" x1="8.3" y1="2.8" x2="23.1" y2="36.1" href="#P"><stop stop-color="#559aff"/><stop offset="1" stop-color="#2e69ef"/></linearGradient><linearGradient id="g11" x1="20.4" y1="-12.2" x2="26.8" y2="81.6" href="#P"><stop stop-color="#559aff"/><stop offset="1" stop-color="#2e69ef"/></linearGradient><linearGradient id="g12" x1="6.5" y1="7.5" x2="18.5" y2="107.4" href="#P"><stop stop-color="#559aff"/><stop offset="1" stop-color="#2e69ef"/></linearGradient><linearGradient id="g13" x1="24.9" y1="12.3" x2="81" y2="12.3" href="#P"><stop stop-color="#e9f3fc"/><stop offset="1" stop-color="#cadcf0"/></linearGradient><linearGradient id="g14" x1="24.9" y1="19" x2="81" y2="19" href="#P"><stop stop-color="#e9f3fc"/><stop offset="1" stop-color="#cadcf0"/></linearGradient><linearGradient id="g15" x1="23.7" y1="7.2" x2="118.5" y2="7.2" href="#P"><stop stop-color="#559aff"/><stop offset="1" stop-color="#2e69ef"/></linearGradient></defs><style>.a{fill:url(#g1)}.b{fill:url(#g2)}.c{fill:url(#g3)}.d{fill:url(#g4)}.e{fill:#e9f3fc}.f{filter:url(#f1)}.g{filter:url(#f2);fill:url(#g5)}.h{fill:url(#g6)}.i{fill:url(#g7)}.j{fill:url(#g8)}.k{fill:url(#g9)}.l{fill:url(#g10)}.m{fill:url(#g11)}.n{fill:url(#g12)}.o{fill:url(#g13)}.p{fill:url(#g14)}.q{fill:url(#g15)}</style><path fill-rule="evenodd" class="a" d="m47.2 24.8h-41.5c-0.9 0-1.7 0.3-2.3 1q-0.3 0.2-0.5 0.5-0.1 0.2-0.3 0.5-0.1 0.3-0.2 0.7 0 0.3 0 0.6v6.7h44.8c0 0 0-10 0-10z"/><path fill-rule="evenodd" class="b" d="m2.4 28.9h44.8v2.1h-44.8z"/><path fill-rule="evenodd" class="c" d="m47.2 23.7c0-0.8-0.4-1.7-1-2.3q-0.3-0.2-0.5-0.4-0.3-0.2-0.6-0.3-0.3-0.2-0.6-0.2-0.4-0.1-0.7-0.1h-14.1q-0.6 0-1.1 0.2-0.5 0.1-0.9 0.4-0.4 0.3-0.7 0.8-0.4 0.4-0.5 0.9l-1.5 4.3h22.2z"/><path fill-rule="evenodd" class="d" d="m49.9 35.5q0.1-0.5 0.1-1 0-0.5-0.2-0.9-0.1-0.5-0.3-0.9-0.3-0.4-0.6-0.8-0.3-0.4-0.7-0.7-0.4-0.2-0.8-0.4-0.4-0.2-0.9-0.4-0.5-0.1-1-0.1h-41c-1.3 0-2.6 0.6-3.4 1.6q-0.3 0.4-0.6 0.8-0.2 0.4-0.3 0.9-0.2 0.4-0.2 0.9 0 0.5 0.1 1l4.2 26.7q0.1 0.8 0.5 1.5 0.4 0.7 1 1.2 0.6 0.5 1.3 0.8 0.8 0.3 1.6 0.3h32.6q0.8 0 1.6-0.3 0.7-0.3 1.3-0.8 0.6-0.5 1-1.2 0.4-0.7 0.5-1.5c1.1-6.4 3.1-19.5 4.2-26.7z"/><path fill-rule="evenodd" class="e" d="m0.1 35.5l0.5 3.6c-0.2-1.2 0.3-2.6 1.1-3.5q0.3-0.4 0.7-0.7 0.4-0.3 0.9-0.5 0.4-0.2 0.9-0.3 0.4-0.1 0.9-0.1h39.8c1.3 0 2.5 0.6 3.4 1.6 0.8 0.9 1.3 2.3 1.1 3.5l0.5-3.6q0.1-0.5 0.1-1 0-0.5-0.2-0.9-0.1-0.5-0.3-0.9-0.3-0.4-0.6-0.8-0.3-0.4-0.7-0.7-0.4-0.2-0.8-0.4-0.4-0.2-0.9-0.4-0.5-0.1-1-0.1h-41c-1.3 0-2.6 0.6-3.4 1.6q-0.3 0.4-0.6 0.8-0.2 0.4-0.3 0.9-0.2 0.4-0.2 0.9 0 0.5 0.1 1z"/><path fill-rule="evenodd" class="f" d="m22.4 56.9q0-0.4-0.1-0.8-0.2-0.4-0.5-0.8-0.3-0.3-0.7-0.4-0.5-0.2-0.9-0.2h-9c-1.2 0-2.2 1-2.2 2.2v2.2q0 0.5 0.2 0.9 0.1 0.4 0.5 0.7 0.3 0.3 0.7 0.5 0.4 0.2 0.8 0.2h9c1.2 0 2.2-1 2.2-2.3 0 0 0-2.2 0-2.2z"/><path fill-rule="evenodd" class="g" d="m22.4 56.9q0-0.4-0.1-0.8-0.2-0.4-0.5-0.8-0.3-0.3-0.7-0.4-0.5-0.2-0.9-0.2h-9c-1.2 0-2.2 1-2.2 2.2v2.2q0 0.5 0.2 0.9 0.1 0.4 0.5 0.7 0.3 0.3 0.7 0.5 0.4 0.2 0.8 0.2h9c1.2 0 2.2-1 2.2-2.3 0 0 0-2.2 0-2.2z"/><path fill-rule="evenodd" class="h" d="m15.5 26.1q0-0.1 0-0.2 0-0.1 0-0.2 0-0.2 0-0.3 0-0.1 0-0.2 0-0.2-0.1-0.4-0.1-0.2-0.3-0.4-0.1-0.2-0.3-0.2-0.2-0.1-0.4-0.1-0.3 0-0.5 0.1-0.2 0-0.3 0.2-0.2 0.2-0.3 0.4-0.1 0.2-0.1 0.4 0 0.6 0.1 1.3c0.1 0.6 0.7 1 1.3 0.9q0.2 0 0.4-0.2 0.2-0.1 0.3-0.2 0.2-0.2 0.2-0.4 0.1-0.3 0-0.5z"/><path fill-rule="evenodd" class="i" d="m16.7 21.9q0.4-0.4 0.8-0.8 0.1-0.1 0.2-0.3 0.1-0.2 0.2-0.4 0-0.2-0.1-0.5 0-0.2-0.2-0.3-0.1-0.2-0.3-0.3-0.2-0.1-0.4-0.1-0.3-0.1-0.5 0-0.2 0.1-0.4 0.2-0.1 0.1-0.2 0.2-0.2 0.2-0.3 0.3-0.1 0.1-0.2 0.2-0.2 0.2-0.3 0.3c-0.4 0.5-0.3 1.2 0.1 1.6 0.5 0.4 1.2 0.3 1.6-0.1z"/><path fill-rule="evenodd" class="j" d="m20.9 19.5q0.7-0.1 1.5-0.2 0.2 0 0.4-0.1 0.2-0.1 0.3-0.3 0.2-0.2 0.2-0.4 0.1-0.2 0.1-0.4 0-0.2-0.2-0.4-0.1-0.2-0.2-0.4-0.2-0.1-0.4-0.2-0.2 0-0.5 0-0.8 0.1-1.6 0.2c-0.3 0.1-0.6 0.3-0.7 0.5-0.2 0.3-0.3 0.6-0.2 0.9 0.1 0.3 0.3 0.5 0.5 0.7 0.3 0.1 0.6 0.2 0.8 0.1z"/><path fill-rule="evenodd" class="k" d="m26.7 19.3q1 0 1.9 0 0.2 0 0.4-0.1 0.2-0.1 0.4-0.3 0.1-0.1 0.2-0.4 0.1-0.2 0.1-0.4 0-0.2-0.1-0.4-0.1-0.2-0.3-0.4-0.1-0.1-0.3-0.2-0.2-0.1-0.5-0.1-0.2 0.1-0.4 0.1-0.2 0-0.5 0-0.2 0-0.4 0-0.2 0-0.5 0-0.2 0-0.4 0-0.2 0.1-0.4 0.3-0.1 0.1-0.2 0.3-0.1 0.2-0.1 0.4 0 0.3 0.1 0.5 0 0.2 0.2 0.3 0.1 0.2 0.3 0.3 0.3 0.1 0.5 0.1z"/><path fill-rule="evenodd" class="l" d="m33.3 18.6q0.2-0.1 0.5-0.2 0.2-0.1 0.4-0.2 0.3 0 0.5-0.1 0.3-0.1 0.5-0.3c0.6-0.2 0.8-0.9 0.5-1.4q-0.1-0.2-0.2-0.4-0.2-0.1-0.4-0.2-0.2-0.1-0.4-0.1-0.3 0-0.5 0.1-0.2 0.1-0.4 0.2-0.2 0.1-0.4 0.2-0.2 0-0.4 0.1-0.2 0.1-0.4 0.1c-0.3 0.1-0.5 0.3-0.6 0.6-0.2 0.2-0.2 0.5-0.1 0.8 0.1 0.3 0.2 0.5 0.5 0.7 0.3 0.1 0.6 0.2 0.9 0.1z"/><path fill-rule="evenodd" class="m" d="m38.6 15.1q0.8-1.1 1.1-2.4 0-0.2 0-0.4-0.1-0.2-0.2-0.4-0.1-0.2-0.3-0.3-0.2-0.2-0.4-0.2-0.2-0.1-0.4 0-0.2 0-0.4 0.1-0.2 0.1-0.3 0.3-0.2 0.2-0.2 0.4-0.1 0.2-0.2 0.4 0 0.2-0.1 0.5-0.1 0.2-0.2 0.3-0.1 0.2-0.3 0.4-0.1 0.2-0.1 0.4-0.1 0.2 0 0.5 0 0.2 0.1 0.4 0.1 0.2 0.3 0.3c0.5 0.3 1.2 0.2 1.6-0.3z"/><path fill-rule="evenodd" class="n" d="m39.2 8.2c-0.5-1.1-1.2-2.1-2.2-2.7q-0.1-0.1-0.4-0.2-0.2 0-0.4 0-0.2 0.1-0.4 0.2-0.2 0.1-0.3 0.3-0.1 0.2-0.2 0.4 0 0.2 0 0.4 0 0.2 0.2 0.4 0.1 0.2 0.3 0.3c0.6 0.4 1.1 1.1 1.4 1.8 0.2 0.6 0.9 0.9 1.5 0.6 0.5-0.2 0.8-0.9 0.5-1.5z"/><path fill-rule="evenodd" class="o" d="m24.9 5c1.2-6.9 11.7-6.4 5.6 0 0 0-5.6 0-5.6 0z"/><path fill-rule="evenodd" class="p" d="m24.9 6.7c1.2 6.8 11.7 6.4 5.6 0 0 0-5.6 0-5.6 0z"/><path fill-rule="evenodd" class="q" d="m24.8 6.9h7.5c0.6 0 1.1-0.5 1.1-1.1 0-0.6-0.5-1.1-1.1-1.1h-7.5c-0.6 0-1.1 0.5-1.1 1.1 0 0.6 0.5 1.1 1.1 1.1z"/></svg>