
<svg width="39" height="39" viewBox="0 0 39 39" xmlns="http://www.w3.org/2000/svg">
    <g fill="#7F7F7F" fill-rule="evenodd">
        <path d="M23.455 25.802c1.237-.306 2.159-1.471 2.159-2.862 0-1.624-1.257-2.94-2.807-2.94S20 21.316 20 22.94c0 1.39.921 2.556 2.16 2.862v7.543c0 1.874 1.45 3.393 3.238 3.393h3.51l-1.053 1.104a.702.702 0 0 0 0 .96.627.627 0 0 0 .915 0l2.16-2.263a.702.702 0 0 0 0-.96l-2.16-2.261a.627.627 0 0 0-.915 0 .702.702 0 0 0 0 .96l1.053 1.103h-3.51c-1.073 0-1.943-.912-1.943-2.036v-7.543zm-.648-1.278c.835 0 1.511-.71 1.511-1.584 0-.874-.676-1.583-1.511-1.583-.835 0-1.512.709-1.512 1.583 0 .875.677 1.584 1.512 1.584zM31.145 21.158a.702.702 0 0 0 0-.96.627.627 0 0 0-.915 0l-2.16 2.263a.702.702 0 0 0 0 .96l2.16 2.261a.627.627 0 0 0 .915 0 .702.702 0 0 0 0-.96l-1.053-1.103h3.51c1.073 0 1.943.911 1.943 2.036v7.543c-1.237.306-2.159 1.471-2.159 2.862 0 1.623 1.257 2.94 2.807 2.94S39 37.683 39 36.06c0-1.39-.921-2.556-2.16-2.862v-7.543c0-1.874-1.45-3.393-3.238-3.393h-3.51l1.053-1.104zm3.537 14.902c0-.875.676-1.584 1.511-1.584.835 0 1.512.71 1.512 1.584 0 .874-.677 1.583-1.512 1.583s-1.511-.709-1.511-1.583z"/>
        <g fill-rule="nonzero">
            <path d="M8.947.252a.82.82 0 0 0-1.181 0L.245 7.988l1.181 1.215 6.095-6.269v3.942c0 .475-.374.86-.836.86H4.178v1.719h2.507c1.385 0 2.507-1.155 2.507-2.579V.86a.872.872 0 0 0-.245-.608z"/>
            <path d="M22.562 0H8.356a.824.824 0 0 0-.59.252L.245 7.988A.872.872 0 0 0 0 8.595v23.207c.003 2.373 1.872 4.295 4.178 4.298H19.22v-1.72H4.178c-1.384 0-2.507-1.154-2.507-2.578V8.952l7.031-7.233h13.86c1.385 0 2.507 1.155 2.507 2.579V18.05h1.672V4.298C26.738 1.925 24.869.003 22.562 0z"/>
            <path d="M20.891 3.438H19.22v1.72h1.671c.462 0 .836.384.836.859v1.719h1.671v-1.72c0-1.423-1.122-2.578-2.507-2.578zM15.877 3.438h1.671v1.719h-1.671zM5.014 13.752h16.713v1.719H5.014zM5.014 18.05h16.713v1.719H5.014zM5.014 22.348h13.37v1.719H5.014zM5.014 26.645h11.699v1.719H5.014z"/>
        </g>
    </g>
</svg>