<svg width="38" height="38" viewBox="0 0 38 38" xmlns="http://www.w3.org/2000/svg">
    <g fill="#7F7F7F" fill-rule="nonzero">
        <path d="M8.476.232a.792.792 0 0 0-1.12 0L.233 7.357l1.12 1.12 5.773-5.774v3.63a.792.792 0 0 1-.792.792H3.958v1.583h2.375a2.375 2.375 0 0 0 2.375-2.375V.792a.791.791 0 0 0-.232-.56z"/>
        <path d="M21.375 0H7.917a.792.792 0 0 0-.56.232L.232 7.357a.792.792 0 0 0-.232.56v21.375a3.963 3.963 0 0 0 3.958 3.958h14.25v-1.583H3.958a2.375 2.375 0 0 1-2.375-2.375V8.244l6.661-6.66h13.131a2.375 2.375 0 0 1 2.375 2.374v12.667h1.583V3.958A3.963 3.963 0 0 0 21.375 0z"/>
        <path d="M19.792 3.167h-1.584V4.75h1.584c.437 0 .791.354.791.792v1.583h1.584V5.542a2.375 2.375 0 0 0-2.375-2.375zM15.042 3.167h1.583V4.75h-1.583zM33.25 22.167h-.056a5.542 5.542 0 0 0-10.971 0h-.056a4.75 4.75 0 0 0 0 9.5H33.25a4.75 4.75 0 0 0 0-9.5zm0 7.916H22.167a3.167 3.167 0 0 1 0-6.333h.791a.792.792 0 0 0 .792-.792 3.958 3.958 0 1 1 7.917 0c0 .437.354.792.791.792h.792a3.167 3.167 0 0 1 0 6.333z"/>
        <path d="M30.315 33.482 28.5 35.297v-8.38h-1.583v10.291a.792.792 0 0 0 1.351.56l3.167-3.167-1.12-1.12z"/>
        <path d="m23.985 34.602 1.12-1.12 3.167 3.167-1.12 1.12zM4.75 12.667h15.833v1.583H4.75zM4.75 16.625h15.833v1.583H4.75zM4.75 20.583h12.667v1.583H4.75zM4.75 24.542h11.083v1.583H4.75z"/>
    </g>
</svg>
