
<svg width="39" height="38" viewBox="0 0 39 38" xmlns="http://www.w3.org/2000/svg">
    <g fill="none" fill-rule="evenodd">
        <path d="M8.923.244a.833.833 0 0 0-1.179 0l-7.5 7.5 1.178 1.179L7.5 2.845v3.822c0 .46-.373.833-.833.833h-2.5v1.667h2.5a2.5 2.5 0 0 0 2.5-2.5V.833a.833.833 0 0 0-.244-.589z" fill="#7F7F7F" fill-rule="nonzero"/>
        <path d="M22.5 0H8.333a.833.833 0 0 0-.589.244l-7.5 7.5a.833.833 0 0 0-.244.59v22.5A4.172 4.172 0 0 0 4.167 35h15v-1.667h-15a2.5 2.5 0 0 1-2.5-2.5V8.678l7.011-7.011H22.5a2.5 2.5 0 0 1 2.5 2.5V17.5h1.667V4.167A4.172 4.172 0 0 0 22.5 0z" fill="#7F7F7F" fill-rule="nonzero"/>
        <path d="M20.833 3.333h-1.666V5h1.666c.46 0 .834.373.834.833V7.5h1.666V5.833a2.5 2.5 0 0 0-2.5-2.5zM15.833 3.333H17.5V5h-1.667zM5 13.333h16.667V15H5zM5 17.5h16.667v1.667H5zM5 21.667h13.333v1.667H5zM5 25.833h11.667V27.5H5z" fill="#7F7F7F" fill-rule="nonzero"/>
        <g transform="translate(19 18)" stroke="#7F7F7F" stroke-linecap="round" stroke-linejoin="round">
            <g transform="translate(1.932 2.365)">
                <path d="M4.811 5.539v-.666c0-.665-.27-1.266-.704-1.701A2.405 2.405 0 0 0 0 4.872v.668"/>
                <circle cx="2.406" cy="1.234" r="1.234"/>
            </g>
            <circle cx="4.336" cy="4.336" r="4.336"/>
            <g transform="translate(10.328 10.328)">
                <g transform="translate(1.932 2.365)">
                    <path d="M4.811 5.539v-.666c0-.665-.27-1.266-.704-1.701A2.405 2.405 0 0 0 0 4.872v.668"/>
                    <circle cx="2.406" cy="1.234" r="1.234"/>
                </g>
                <circle cx="4.336" cy="4.336" r="4.336"/>
            </g>
            <path d="M7.57 1.448a8.302 8.302 0 0 1 6.889 1.423M1.448 7.57a8.302 8.302 0 0 0 1.423 6.889M4.541 16.13a8.302 8.302 0 0 0 6.888 1.423M16.13 4.541a8.302 8.302 0 0 1 1.423 6.888"/>
            <circle cx="15.334" cy="3.666" r="1.183"/>
            <circle cx="3.666" cy="15.334" r="1.183"/>
        </g>
    </g>
</svg>