<svg version="1.2" xmlns="http://www.w3.org/2000/svg" viewBox="0 0 24 24" width="24" height="24">
	<title>icons-attendence (2)-svg</title>
	<style>
		.s0 { fill: #e8fbfa } 
	</style>
	<filter id="f0">
		<feFlood flood-color="#bdbdc1" flood-opacity="1" />
		<feBlend mode="normal" in2="SourceGraphic"/>
		<feComposite in2="SourceAlpha" operator="in" />
	</filter>
	<g id="Layer" filter="url(#f0)">
		<path id="Layer" fill-rule="evenodd" class="s0" d="m7.3 2.2q0.2-0.2 0.5-0.2 0.3 0 0.5 0.2 0.2 0.2 0.2 0.5v3.3q0 0.2-0.2 0.4-0.2 0.2-0.5 0.3-0.3-0.1-0.5-0.3-0.2-0.2-0.2-0.4v-3.3q0-0.3 0.2-0.5zm8.4 0q0.2-0.2 0.5-0.2 0.3 0 0.5 0.2 0.2 0.2 0.2 0.5v3.3q0 0.2-0.2 0.4-0.2 0.2-0.5 0.3-0.3-0.1-0.5-0.3-0.2-0.2-0.2-0.4v-3.3q0-0.3 0.2-0.5z"/>
		<path id="Layer" fill-rule="evenodd" class="s0" d="m21.1 12.9q-0.6-0.5-1.2-0.9-0.6-0.3-1.3-0.5-0.8-0.2-1.5-0.2-1.1 0-2.2 0.4-1.1 0.5-1.9 1.3-0.8 0.8-1.3 1.9-0.4 1.1-0.4 2.2 0 0.7 0.2 1.4 0.1 0.6 0.4 1.2 0.3 0.6 0.8 1.1 0.4 0.6 0.9 1h-8.1q-0.7 0-1.3-0.3-0.7-0.3-1.2-0.8-0.5-0.4-0.7-1.1-0.3-0.6-0.3-1.3v-7.7h20v3.4q-0.4-0.6-0.9-1.1zm-5.4-9.3v3.9q0.4 0.1 0.8 0.1 0.3-0.1 0.7-0.3 0.3-0.3 0.4-0.6 0.2-0.4 0.2-0.7v-2.4h0.7q0.7 0 1.3 0.3 0.7 0.3 1.2 0.7 0.5 0.5 0.7 1.2 0.3 0.6 0.3 1.3v2.1h-20v-2.1q0-0.7 0.3-1.3 0.2-0.7 0.7-1.2 0.5-0.4 1.2-0.7 0.6-0.3 1.3-0.3h1.8v3.9q0.4 0.1 0.8 0.1 0.4-0.1 0.7-0.3 0.3-0.3 0.5-0.6 0.1-0.4 0.1-0.7v-2.4c0 0 6.3 0 6.3 0z"/>
		<path id="Layer" fill-rule="evenodd" class="s0" d="m19 12.6q0.9 0.4 1.6 1.1 0.7 0.7 1 1.5 0.4 0.9 0.4 1.9 0 1-0.4 1.9-0.3 0.9-1 1.6-0.7 0.7-1.6 1-0.9 0.4-1.9 0.4-1 0-1.9-0.4-0.8-0.3-1.5-1-0.7-0.7-1.1-1.6-0.4-0.9-0.4-1.9 0-1 0.4-1.9 0.4-0.8 1.1-1.5 0.7-0.7 1.5-1.1 0.9-0.4 1.9-0.4 1 0 1.9 0.4zm-4.2 4.8l1.4 1.4q0.1 0.1 0.2 0.1 0.1 0.1 0.3 0.1 0.1 0 0.2-0.1 0.1 0 0.2-0.1l2.4-2.4q0.2-0.2 0.2-0.4 0-0.3-0.2-0.5-0.2-0.2-0.5-0.2-0.3 0-0.5 0.2l-1.8 1.8-1-0.9q-0.2-0.2-0.4-0.2-0.3 0-0.5 0.2-0.2 0.2-0.2 0.5 0 0.3 0.2 0.5z"/>
	</g>
</svg>