<svg width="24" height="24" viewBox="0 0 24 24" xmlns="http://www.w3.org/2000/svg">
    <g fill="#E8FBFA" fill-rule="evenodd">
        <path d="M7.116 2.698v3.255a.698.698 0 0 0 1.396 0V2.698a.698.698 0 0 0-1.396 0zM15.488 2.698v3.255a.698.698 0 0 0 1.396 0V2.698a.698.698 0 0 0-1.396 0z"/>
        <path d="M22 13.962v-3.357H2v7.674a3.488 3.488 0 0 0 3.488 3.488h8.14a5.809 5.809 0 0 1-2.326-4.65 5.817 5.817 0 0 1 5.814-5.815A5.812 5.812 0 0 1 22 13.962zM9.442 3.628v2.325a1.629 1.629 0 0 1-2.093 1.56V3.628h-1.86A3.488 3.488 0 0 0 2 7.116V9.21h20V7.116a3.488 3.488 0 0 0-3.488-3.488h-.698v2.325a1.629 1.629 0 0 1-2.093 1.56V3.628H9.44z"/>
        <path d="M17.116 12.233a4.886 4.886 0 0 0-4.883 4.883A4.886 4.886 0 0 0 17.116 22 4.886 4.886 0 0 0 22 17.116a4.886 4.886 0 0 0-4.884-4.883zm-2.353 5.144 1.395 1.395a.697.697 0 0 0 .986 0l2.326-2.325a.697.697 0 1 0-.986-.987l-1.833 1.832-.902-.901a.697.697 0 1 0-.986.986z"/>
    </g>
</svg>
