<svg width="48" height="48" viewBox="0 0 48 48" xmlns="http://www.w3.org/2000/svg">
    <g fill="none" fill-rule="evenodd">
        <path d="M4 0h40a4 4 0 0 1 4 4v40a4 4 0 0 1-4 4H4a4 4 0 0 1-4-4V4a4 4 0 0 1 4-4z" fill="#4AC0A2"/>
        <path d="M12 12h24v24H12z"/>
        <path d="M14 32h3.636V21.2H14V32zm20-9.9c0-.99-.818-1.8-1.818-1.8h-5.737l.864-4.113.027-.288c0-.369-.154-.711-.4-.954L25.973 14l-5.982 5.931a1.751 1.751 0 0 0-.536 1.269v9c0 .99.818 1.8 1.818 1.8h8.182c.754 0 1.4-.45 1.672-1.098l2.746-6.345c.082-.207.127-.423.127-.657v-1.8z" fill="#FFF" fill-rule="nonzero"/>
    </g>
</svg>
