<svg width="34" height="27" viewBox="0 0 34 27" xmlns="http://www.w3.org/2000/svg">
    <g fill="none" fill-rule="evenodd">
        <path d="M17 0a4 4 0 0 1 1.529 7.698c.057.066.108.137.154.211l3.532 5.913 6.079-2.51c.25-.104.52-.157.793-.156a2.5 2.5 0 1 1 1.911 1.793c.002.136-.015.271-.049.404l-3.063 12.082a1.684 1.684 0 0 1-.318.65 1.834 1.834 0 0 1-.572.477 2.116 2.116 0 0 1-1.501.19 34.266 34.266 0 0 0-17 0 1.957 1.957 0 0 1-.505.067 2.06 2.06 0 0 1-.997-.257 1.868 1.868 0 0 1-.57-.478 1.718 1.718 0 0 1-.32-.649L3.053 13.353A1.664 1.664 0 0 1 3 12.95a2.5 2.5 0 1 1 1.913-1.792c.272-.003.543.05.794.154l6.08 2.51 3.532-5.913c.045-.074.096-.145.152-.213A4 4 0 0 1 17 0z" fill="#FA0" fill-rule="nonzero"/>
        <path d="M17 21a3 3 0 1 0 0-6 3 3 0 0 0 0 6zm-7.5 0a1.5 1.5 0 1 0 0-3 1.5 1.5 0 0 0 0 3zm15 0a1.5 1.5 0 1 0 0-3 1.5 1.5 0 0 0 0 3z" fill-opacity=".514" fill="#FFF"/>
    </g>
</svg>
