<svg width="50" height="60" viewBox="0 0 50 60" xmlns="http://www.w3.org/2000/svg">
    <g fill="#272727" fill-rule="nonzero" opacity=".3">
        <path d="m49.078 54.743-4.376-4.272.085-37.175a.922.922 0 0 0-.282-.665L31.907.341a.972.972 0 0 0-.677-.274L3.972 0h-.01C1.849 0 .126 1.676.12 3.742L0 56.153c-.005 2.072 1.709 3.752 3.833 3.758L40.836 60h.009c1.278 0 2.4-.62 3.097-1.562l.675.659a3.206 3.206 0 0 0 4.46 0 3.03 3.03 0 0 0 0-4.354zm-7.618-42.4h-7.418c-1.06 0-1.921-.84-1.921-1.874V3.274l9.34 9.07zm-.615 45.782h-.004l-37.003-.09c-1.062-.001-1.92-.841-1.917-1.878l.12-52.411c.003-1.032.864-1.87 1.922-1.87h.004L30.2 1.94v8.529c0 2.068 1.724 3.75 3.843 3.75h8.821l-.078 34.382-2.882-2.813c-.99-.968-2.478-1.143-3.664-.55l-1.213-1.184c4.883-5.455 4.682-13.762-.636-18.953-5.556-5.422-14.594-5.422-20.149 0a13.677 13.677 0 0 0 .012 19.653c5.32 5.192 13.8 5.429 19.416.627l1.21 1.181c-.67 1.266-.367 2.674.563 3.58l7.114 6.944a1.923 1.923 0 0 1-1.711 1.039zM33.02 43.423l-.005.008c-4.818 4.697-12.606 4.682-17.405-.003a11.832 11.832 0 0 1-.012-17.001c4.807-4.69 12.626-4.691 17.432 0a11.833 11.833 0 0 1-.004 16.992l-.006.004zM47.72 57.771a1.252 1.252 0 0 1-1.744 0l-9.174-8.954a1.18 1.18 0 0 1 0-1.703 1.257 1.257 0 0 1 1.744 0l9.174 8.954c.481.47.481 1.234 0 1.703z"/>
        <path d="M17.65 12.4a.95.95 0 0 0-.961-.938H7.213a.95.95 0 0 0-.961.938c0 .518.43.937.96.937h9.477c.53 0 .96-.42.96-.937zM7.213 8.733h6.484c.53 0 .96-.42.96-.938a.95.95 0 0 0-.96-.937H7.213a.95.95 0 0 0-.961.937c0 .519.43.938.96.938zM18.033 29.907a.95.95 0 0 0-.96.938v8.16c0 .519.43.938.96.938s.96-.42.96-.937v-8.161a.95.95 0 0 0-.96-.938zM22.22 33.376a.95.95 0 0 0-.96.937v4.693c0 .518.43.937.96.937s.96-.42.96-.937v-4.693a.949.949 0 0 0-.96-.937zM26.407 31.82a.95.95 0 0 0-.961.938v6.248c0 .518.43.937.96.937.531 0 .961-.42.961-.937v-6.248a.95.95 0 0 0-.96-.938zM30.593 35.435a.95.95 0 0 0-.96.937v2.634c0 .518.43.937.96.937.531 0 .961-.42.961-.937v-2.634a.949.949 0 0 0-.96-.937z"/>
    </g>
</svg>
