<svg width="32" height="32" viewBox="0 0 32 32" xmlns="http://www.w3.org/2000/svg">
    <g fill="none" fill-rule="evenodd">
        <path d="M0 0h32v32H0z"/>
        <path d="M13.333 5c1.292 0 2.541.184 3.723.527a8.5 8.5 0 0 0 9.182 9.441c.28 1.075.429 2.203.429 3.365 0 7.36-5.974 13.334-13.334 13.334C5.973 31.667 0 25.693 0 18.333 0 10.973 5.973 5 13.333 5zm1.174 4h-2.334v1.68c-3.314.711-3.484 3.527-3.493 3.908v.039c0 3.04 3 3.893 4.467 4.413 2.106.76 3.04 1.427 3.04 2.707 0 1.506-1.4 2.146-2.64 2.146-2.427 0-3.12-2.493-3.2-2.786l-2.2.893c.84 2.92 3.04 3.707 4.026 3.947v1.72h2.334v-1.654c.693-.12 4.026-.786 4.026-4.293 0-1.867-.813-3.493-4.013-4.6-2.373-.787-3.52-1.267-3.52-2.533 0-1.36 1.48-1.854 2.413-1.854 1.747 0 2.387 1.32 2.534 1.787l2.106-.893c-.2-.587-1.093-2.547-3.546-2.974V9zM24.24 8.65l-2.83-2.83L20 7.23l4.24 4.25 7.07-7.07L29.9 3z" fill="#30BC74" fill-rule="nonzero"/>
    </g>
</svg>
