<svg width="32" height="32" viewBox="0 0 32 32" xmlns="http://www.w3.org/2000/svg">
    <g fill="none" fill-rule="evenodd">
        <path d="M0 0h32v32H0z"/>
        <path d="M16 2.667C8.64 2.667 2.667 8.64 2.667 16S8.64 29.333 16 29.333 29.333 23.36 29.333 16 23.36 2.667 16 2.667zm1.173 21.013v1.653H14.84v-1.72c-.987-.24-3.187-1.026-4.027-3.946l2.2-.894c.08.294.774 2.787 3.2 2.787 1.24 0 2.64-.64 2.64-2.147 0-1.28-.933-1.946-3.04-2.706-1.466-.52-4.466-1.374-4.466-4.414 0-.133.013-3.2 3.493-3.946v-1.68h2.333V8.32c2.454.427 3.347 2.387 3.547 2.973l-2.107.894c-.146-.467-.786-1.787-2.533-1.787-.933 0-2.413.493-2.413 1.853 0 1.267 1.146 1.747 3.52 2.534 3.2 1.106 4.013 2.733 4.013 4.6 0 3.506-3.333 4.173-4.027 4.293z" fill="#0079FF" fill-rule="nonzero"/>
    </g>
</svg>
