<svg width="34" height="36" viewBox="0 0 34 36" xmlns="http://www.w3.org/2000/svg">
    <path d="M18.286 29.936a2.806 2.806 0 0 1 2.805 2.808 2.806 2.806 0 0 1-2.805 2.808 2.806 2.806 0 0 1-2.804-2.808 2.806 2.806 0 0 1 2.804-2.808zm4.283-4.94 3.022 1.814a1.767 1.767 0 1 1-1.818 3.033l-3.021-1.815a3.912 3.912 0 0 0-4.646.481l-5.694 5.27c-.34.315-.77.469-1.198.469a1.768 1.768 0 0 1-1.199-3.067l5.693-5.27c2.408-2.228 6.051-2.604 8.861-.915zM4.102 8.859l5.265 5.7c2.225 2.41 2.601 6.057.914 8.87L8.47 26.454a1.764 1.764 0 0 1-2.424.606 1.77 1.77 0 0 1-.606-2.426l1.813-3.025a3.923 3.923 0 0 0-.48-4.65l-5.266-5.7a1.768 1.768 0 1 1 2.596-2.4zm23.747-.843a1.77 1.77 0 0 1 .606 2.426l-1.812 3.025a3.923 3.923 0 0 0 .48 4.65l5.265 5.7a1.768 1.768 0 1 1-2.596 2.4l-5.265-5.7c-2.225-2.41-2.6-6.057-.914-8.87l1.813-3.025a1.767 1.767 0 0 1 2.423-.606zM2.805 16.419a2.806 2.806 0 0 1 2.805 2.807 2.806 2.806 0 0 1-2.805 2.808A2.806 2.806 0 0 1 0 19.226a2.806 2.806 0 0 1 2.805-2.807zm14.141-1.826a3.183 3.183 0 0 1 3.181 3.184 3.183 3.183 0 0 1-3.18 3.185 3.183 3.183 0 0 1-3.182-3.185 3.183 3.183 0 0 1 3.181-3.184zm14.142-2.007a2.806 2.806 0 0 1 2.805 2.808 2.806 2.806 0 0 1-2.805 2.808 2.806 2.806 0 0 1-2.805-2.808 2.806 2.806 0 0 1 2.805-2.808zM25.98 1.872a1.768 1.768 0 0 1-.099 2.5l-5.693 5.27a7.444 7.444 0 0 1-5.054 1.969 7.394 7.394 0 0 1-3.81-1.05L8.301 8.745a1.767 1.767 0 1 1 1.818-3.033l3.024 1.812a3.912 3.912 0 0 0 4.646-.481l5.694-5.27a1.763 1.763 0 0 1 2.496.098zM15.482 0a2.806 2.806 0 0 1 2.805 2.808 2.806 2.806 0 0 1-2.805 2.808 2.806 2.806 0 0 1-2.805-2.808A2.806 2.806 0 0 1 15.482 0z" fill="#FC6E45" fill-rule="nonzero"/>
</svg>
